<svg width="1540" height="312" viewBox="0 0 1540 312" fill="none" xmlns="http://www.w3.org/2000/svg">
<path d="M460 66.25V30.5C460 27.5 459.5 25.5833 458.5 24.75C457.5 23.75 455.5 23.25 452.5 23.25H427.5V73.5H452.5C455.5 73.5 457.5 73.0833 458.5 72.25C459.5 71.25 460 69.25 460 66.25ZM460 137V98.5C460 95.5 459.5 93.5833 458.5 92.75C457.5 91.75 455.5 91.25 452.5 91.25H427.5V144.25H452.5C455.5 144.25 457.5 143.833 458.5 143C459.5 142 460 140 460 137ZM405 5.49999H459.25C474.917 5.49999 482.75 12.8333 482.75 27.5V67.25C482.75 76.0833 479.417 81.25 472.75 82.75C479.417 84.4167 482.75 89.25 482.75 97.25V140C482.75 154.667 474.917 162 459.25 162H405V5.49999ZM530.045 143.75H575.295V162H507.295V5.49999H573.545V23.75H530.045V72H566.045V90.25H530.045V143.75ZM615.738 143.75H660.988V162H592.988V5.49999H659.238V23.75H615.738V72H651.738V90.25H615.738V143.75ZM701.182 98.75V162H678.682V5.49999H729.932C745.432 5.49999 753.182 12.8333 753.182 27.5V76.5C753.182 89.1667 747.598 96.4167 736.432 98.25L761.182 162H736.932L713.432 98.75H701.182ZM701.182 23.75V80.75H723.182C726.182 80.75 728.182 80.3333 729.182 79.5C730.182 78.5 730.682 76.5 730.682 73.5V31C730.682 28 730.182 26.0833 729.182 25.25C728.182 24.25 726.182 23.75 723.182 23.75H701.182ZM868.936 66.25V30.5C868.936 27.5 868.436 25.5833 867.436 24.75C866.436 23.75 864.436 23.25 861.436 23.25H836.436V73.5H861.436C864.436 73.5 866.436 73.0833 867.436 72.25C868.436 71.25 868.936 69.25 868.936 66.25ZM868.936 137V98.5C868.936 95.5 868.436 93.5833 867.436 92.75C866.436 91.75 864.436 91.25 861.436 91.25H836.436V144.25H861.436C864.436 144.25 866.436 143.833 867.436 143C868.436 142 868.936 140 868.936 137ZM813.936 5.49999H868.186C883.852 5.49999 891.686 12.8333 891.686 27.5V67.25C891.686 76.0833 888.352 81.25 881.686 82.75C888.352 84.4167 891.686 89.25 891.686 97.25V140C891.686 154.667 883.852 162 868.186 162H813.936V5.49999ZM938.48 5.49999H966.23C981.73 5.49999 989.48 12.8333 989.48 27.5V140C989.48 154.667 981.73 162 966.23 162H938.48C922.814 162 914.98 154.667 914.98 140V27.5C914.98 12.8333 922.814 5.49999 938.48 5.49999ZM966.98 136.5V31C966.98 28 966.48 26.0833 965.48 25.25C964.48 24.25 962.48 23.75 959.48 23.75H944.98C941.98 23.75 939.98 24.25 938.98 25.25C938.147 26.0833 937.73 28 937.73 31V136.5C937.73 139.5 938.147 141.5 938.98 142.5C939.98 143.333 941.98 143.75 944.98 143.75H959.48C962.48 143.75 964.48 143.333 965.48 142.5C966.48 141.5 966.98 139.5 966.98 136.5ZM1065.62 5.49999H1088.38V140C1088.38 154.667 1080.54 162 1064.88 162H1037.13C1021.46 162 1013.63 154.667 1013.63 140V5.49999H1036.38V136.5C1036.38 139.5 1036.88 141.5 1037.88 142.5C1038.88 143.333 1040.88 143.75 1043.88 143.75H1058.13C1061.29 143.75 1063.29 143.333 1064.13 142.5C1065.13 141.5 1065.62 139.5 1065.62 136.5V5.49999ZM1176.99 5.49999V23.75H1150.74V162H1128.24V23.75H1101.99V5.49999H1176.99ZM1193.13 5.49999H1215.63V162H1193.13V5.49999ZM1265.87 162C1250.21 162 1242.37 154.667 1242.37 140V27.5C1242.37 12.8333 1250.21 5.49999 1265.87 5.49999H1293.62C1309.12 5.49999 1316.87 12.8333 1316.87 27.5V140C1316.87 151.333 1312.21 158.333 1302.87 161L1320.62 184.75H1296.62L1280.12 162H1265.87ZM1265.12 31V136.5C1265.12 139.5 1265.54 141.5 1266.37 142.5C1267.37 143.333 1269.37 143.75 1272.37 143.75H1286.87C1289.87 143.75 1291.87 143.333 1292.87 142.5C1293.87 141.5 1294.37 139.5 1294.37 136.5V31C1294.37 28 1293.87 26.0833 1292.87 25.25C1291.87 24.25 1289.87 23.75 1286.87 23.75H1272.37C1269.37 23.75 1267.37 24.25 1266.37 25.25C1265.54 26.0833 1265.12 28 1265.12 31ZM1393.02 5.49999H1415.77V140C1415.77 154.667 1407.93 162 1392.27 162H1364.52C1348.85 162 1341.02 154.667 1341.02 140V5.49999H1363.77V136.5C1363.77 139.5 1364.27 141.5 1365.27 142.5C1366.27 143.333 1368.27 143.75 1371.27 143.75H1385.52C1388.68 143.75 1390.68 143.333 1391.52 142.5C1392.52 141.5 1393.02 139.5 1393.02 136.5V5.49999ZM1463.88 143.75H1509.13V162H1441.13V5.49999H1507.38V23.75H1463.88V72H1499.88V90.25H1463.88V143.75Z" fill="white"/>
<path d="M263.682 19.6304C260.288 19.6304 256.964 20.3059 253.877 21.6074C249.803 18.3391 244.836 16.3204 239.518 15.8226C235.741 15.471 232.006 15.8914 228.492 17.0507C220.848 6.42137 208.519 0 195.22 0C181.914 0 169.582 6.42701 161.939 17.0631C157.408 15.5765 152.502 15.3011 147.701 16.3125C136.492 18.6721 128.055 27.9633 126.705 39.4318C126.14 44.2368 126.806 48.8742 128.643 53.1521C127.346 54.1866 126.512 55.777 126.512 57.5643V86.1083C126.512 100.615 128.522 114.934 132.491 128.812C129.056 128.209 125.525 127.892 121.921 127.892C110.824 127.892 100.411 130.875 91.4396 136.078C82.1918 130.718 71.7353 127.892 60.9694 127.892C37.7716 127.892 16.8821 140.807 6.45321 161.596C5.05583 164.383 6.18118 167.774 8.96746 169.172C9.77959 169.579 10.6431 169.772 11.4936 169.772C13.5608 169.772 15.5519 168.631 16.5424 166.658C25.0446 149.709 42.0682 139.18 60.9694 139.18C68.0116 139.18 74.8889 140.666 81.2256 143.509C77.638 146.733 74.4341 150.376 71.6907 154.359C68.2396 153.282 64.6524 152.725 60.9688 152.725C41.0523 152.725 24.8493 168.927 24.8493 188.844C24.8493 207.543 31.5862 225.662 43.5807 239.855C40.436 240.452 37.1932 240.768 33.8769 240.768C31.8085 240.768 29.8225 241.122 27.9708 241.765C21.7131 232.832 17.1361 222.991 14.3543 212.453C13.5586 209.439 10.4698 207.641 7.45722 208.437C4.44349 209.232 2.64542 212.32 3.44061 215.334C6.60389 227.316 11.8333 238.491 18.9923 248.616C16.9916 251.523 15.8172 255.04 15.8172 258.828C15.8172 268.787 23.9187 276.888 33.8769 276.888C38.4257 276.888 42.895 276.541 47.2603 275.873C47.2824 275.887 47.3038 275.902 47.3258 275.916C60.7233 284.644 76.0448 289 91.3837 289C106.755 289 122.139 284.611 135.611 275.869C140.01 276.541 144.486 276.888 149.012 276.888C150.598 276.888 152.135 276.681 153.601 276.296V283.312C153.601 286.429 156.128 288.956 159.245 288.956H256.222C259.339 288.956 261.865 286.429 261.865 283.312V210.64C261.865 189.819 266.251 169.659 274.9 150.719C284.226 130.297 288.955 108.559 288.955 86.1083V44.905C288.956 30.9685 277.618 19.6304 263.682 19.6304V19.6304ZM272.708 63.208H277.669V86.1083C277.669 91.1205 277.409 96.0925 276.902 101.021H261.82V74.0958C261.82 68.092 266.704 63.208 272.708 63.208V63.208ZM137.915 40.7513C138.698 34.1008 143.565 28.7184 150.026 27.3577C153.999 26.5213 157.9 27.1156 161.309 29.0773C162.628 29.837 164.198 30.03 165.663 29.6157C167.127 29.2004 168.362 28.211 169.087 26.8723C174.29 17.2589 184.303 11.2873 195.22 11.2873C206.133 11.2873 216.146 17.2561 221.349 26.865C222.074 28.2037 223.309 29.1925 224.773 29.6073C226.238 30.0232 227.808 29.8279 229.127 29.0689C231.944 27.4474 235.173 26.7516 238.467 27.0614C242.455 27.4339 246.095 29.267 248.715 32.2225C250.574 34.318 253.688 34.734 256.031 33.1983C258.308 31.7061 260.953 30.9177 263.681 30.9177C271.394 30.9177 277.668 37.1924 277.668 44.905V51.9206H272.706C260.479 51.9206 250.531 61.8682 250.531 74.0958V105.043C250.531 109.934 246.553 113.912 241.662 113.912C236.772 113.912 232.793 109.934 232.793 105.043C232.793 101.926 230.266 99.3992 227.149 99.3992C224.032 99.3992 221.505 101.926 221.505 105.043V143.58C221.505 148.471 217.527 152.45 212.636 152.45C207.745 152.45 203.767 148.471 203.767 143.58V75.3334C203.767 62.4235 193.264 51.9206 180.354 51.9206H140.867C138.432 48.57 137.436 44.8203 137.915 40.7513V40.7513ZM137.8 86.1083V63.208H180.354C187.041 63.208 192.48 68.6479 192.48 75.3334V101.021H138.574C138.063 96.0818 137.8 91.1075 137.8 86.1083ZM154.922 241.765C153.069 241.122 151.082 240.767 149.013 240.767C145.741 240.767 142.497 240.451 139.321 239.842C151.309 225.652 158.041 207.538 158.041 188.843C158.041 168.927 141.838 152.724 121.922 152.724C116.469 152.724 111.297 153.946 106.657 156.119C106.623 156.134 106.589 156.15 106.554 156.165C94.3026 161.95 85.8015 174.42 85.8015 188.844C85.8015 199.16 82.7771 208.783 77.5685 216.873C74.0808 207.985 72.2567 198.444 72.2567 188.844C72.2567 179.898 74.6355 171.496 78.7921 164.239C78.8152 164.2 78.8361 164.16 78.8587 164.121C82.7201 157.422 88.1013 151.705 94.5261 147.44C94.552 147.423 94.5774 147.407 94.6028 147.39C102.445 142.204 111.836 139.18 121.921 139.18C149.306 139.18 171.585 161.459 171.585 188.844C171.586 207.999 165.837 226.197 154.922 241.765ZM116.85 164.534C118.488 164.193 120.184 164.012 121.921 164.012C135.614 164.012 146.753 175.151 146.753 188.844C146.753 206.452 139.783 223.467 127.516 236.074C122.361 233.722 117.584 230.531 113.406 226.595C118.862 215.147 121.92 202.347 121.92 188.844C121.922 180.456 120.177 172.17 116.85 164.534ZM36.1378 188.843C36.1378 175.151 47.2773 164.011 60.9699 164.011C62.6918 164.011 64.3821 164.191 66.0334 164.534C62.7799 171.986 60.9699 180.207 60.9699 188.843C60.9699 201.898 63.9126 214.859 69.4925 226.592C65.3703 230.484 60.6138 233.709 55.3957 236.095C43.1162 223.485 36.1378 206.461 36.1378 188.843ZM27.1057 258.827C27.1057 255.093 30.1436 252.055 33.8781 252.055C52.2414 252.055 68.7988 244.181 80.3582 231.635C80.3785 231.615 80.3972 231.593 80.4175 231.572C90.7635 220.312 97.0894 205.304 97.0894 188.843C97.0894 180.92 100.824 173.858 106.62 169.308C109.254 175.453 110.634 182.107 110.634 188.843C110.634 231.167 76.2017 265.6 33.8781 265.6C30.1436 265.6 27.1057 262.562 27.1057 258.827V258.827ZM63.3702 271.8C69.0963 269.758 74.5526 267.144 79.6652 264.018C83.5017 265.135 87.4675 265.703 91.4379 265.703C95.4025 265.703 99.3672 265.137 103.206 264.022C108.359 267.178 113.803 269.783 119.465 271.801C101.568 279.661 81.207 279.671 63.3702 271.8V271.8ZM99.5117 247.46C102.524 244.09 105.282 240.489 107.754 236.686C119.173 246.523 133.843 252.055 149.013 252.055C152.748 252.055 155.786 255.093 155.786 258.828C155.786 262.562 152.748 265.6 149.013 265.6C130.736 265.6 113.362 259.196 99.5117 247.46V247.46ZM164.89 277.667V267.43C165.981 265.424 166.7 263.188 166.961 260.817C168.928 261.474 171.024 261.83 173.191 261.83H242.279C245.245 261.83 248.057 261.164 250.579 259.979V277.668H164.89V277.667ZM264.634 146.03C255.308 166.452 250.579 188.19 250.579 210.64V242.242C250.579 246.819 246.856 250.542 242.279 250.542H173.19C169.975 250.542 167.123 248.706 165.75 245.92C176.974 228.971 182.873 209.399 182.873 188.843C182.873 163.596 167.443 141.886 145.518 132.646C143.245 125.98 141.472 119.189 140.201 112.307H192.48V143.58C192.48 154.694 201.522 163.736 212.636 163.736C223.751 163.736 232.793 154.694 232.793 143.58V123.141C235.471 124.459 238.482 125.199 241.663 125.199C250.216 125.199 257.537 119.841 260.459 112.307H275.284C273.152 123.88 269.6 135.157 264.634 146.03V146.03Z" fill="#FFC123"/>
<path d="M227.79 185.967C229.28 185.967 230.731 185.363 231.78 184.313C232.83 183.264 233.434 181.808 233.434 180.323C233.434 178.833 232.83 177.383 231.78 176.333C230.731 175.284 229.28 174.68 227.79 174.68C226.306 174.68 224.85 175.284 223.8 176.333C222.75 177.383 222.146 178.834 222.146 180.323C222.146 181.808 222.75 183.264 223.8 184.313C224.85 185.363 226.3 185.967 227.79 185.967Z" fill="#FFC123"/>
<path d="M218.996 199.785C209.66 199.785 202.065 207.38 202.065 216.716C202.065 226.052 209.66 233.647 218.996 233.647C228.332 233.647 235.927 226.052 235.927 216.716C235.927 207.38 228.332 199.785 218.996 199.785ZM218.996 222.36C215.884 222.36 213.352 219.828 213.352 216.716C213.352 213.604 215.884 211.072 218.996 211.072C222.108 211.072 224.64 213.604 224.64 216.716C224.64 219.828 222.108 222.36 218.996 222.36Z" fill="#FFC123"/>
<path d="M9.63375 192.833C10.6835 191.783 11.2873 190.328 11.2873 188.843C11.2873 187.359 10.6835 185.903 9.63375 184.853C8.58402 183.804 7.12796 183.199 5.64367 183.199C4.15939 183.199 2.70332 183.803 1.6536 184.853C0.603873 185.903 0 187.359 0 188.843C0 190.328 0.603873 191.783 1.6536 192.833C2.70332 193.888 4.15939 194.487 5.64367 194.487C7.12796 194.486 8.58402 193.888 9.63375 192.833Z" fill="#FFC123"/>
<path d="M417.562 289H408.809V242.967H393.062V235.46H433.309V242.967H417.562V289ZM488.272 289H479.483V264.867H454.801V289H446.048V235.46H454.801V257.359H479.483V235.46H488.272V289ZM537.157 289H506.872V235.46H537.157V242.857H515.624V257.433H535.802V264.757H515.624V281.566H537.157V289ZM577.249 235.46H593.142C600.515 235.46 605.837 236.534 609.109 238.683C612.405 240.831 614.053 244.225 614.053 248.863C614.053 251.988 613.247 254.588 611.636 256.664C610.024 258.739 607.705 260.045 604.678 260.582V260.948C608.438 261.656 611.196 263.06 612.954 265.16C614.736 267.235 615.627 270.055 615.627 273.619C615.627 278.429 613.943 282.201 610.574 284.935C607.229 287.645 602.566 289 596.584 289H577.249V235.46ZM586.001 257.579H594.424C598.086 257.579 600.759 257.005 602.444 255.858C604.128 254.686 604.971 252.708 604.971 249.925C604.971 247.411 604.055 245.592 602.224 244.469C600.417 243.346 597.537 242.784 593.582 242.784H586.001V257.579ZM586.001 264.684V281.639H595.303C598.965 281.639 601.724 280.943 603.579 279.552C605.459 278.136 606.399 275.914 606.399 272.887C606.399 270.104 605.447 268.041 603.542 266.698C601.638 265.355 598.745 264.684 594.863 264.684H586.001ZM661.546 289H631.26V235.46H661.546V242.857H640.013V257.433H660.191V264.757H640.013V281.566H661.546V289ZM708.526 274.461C708.526 279.222 706.805 282.958 703.363 285.667C699.92 288.377 695.172 289.732 689.117 289.732C683.062 289.732 678.106 288.792 674.249 286.913V278.636C676.69 279.784 679.278 280.687 682.013 281.346C684.771 282.005 687.335 282.335 689.703 282.335C693.17 282.335 695.721 281.676 697.357 280.357C699.017 279.039 699.847 277.269 699.847 275.047C699.847 273.045 699.09 271.349 697.577 269.957C696.063 268.565 692.938 266.917 688.202 265.013C683.319 263.036 679.876 260.777 677.875 258.238C675.873 255.699 674.872 252.647 674.872 249.083C674.872 244.615 676.458 241.1 679.632 238.536C682.806 235.973 687.066 234.691 692.413 234.691C697.54 234.691 702.643 235.814 707.721 238.06L704.938 245.201C700.177 243.199 695.929 242.198 692.193 242.198C689.361 242.198 687.213 242.821 685.748 244.066C684.283 245.287 683.551 246.91 683.551 248.937C683.551 250.328 683.844 251.524 684.43 252.525C685.016 253.502 685.98 254.43 687.323 255.309C688.666 256.188 691.083 257.347 694.574 258.788C698.504 260.423 701.385 261.949 703.216 263.365C705.047 264.781 706.39 266.38 707.245 268.163C708.099 269.945 708.526 272.044 708.526 274.461ZM741.884 289H733.131V242.967H717.384V235.46H757.631V242.967H741.884V289ZM817.131 242.198C812.102 242.198 808.147 243.98 805.266 247.545C802.385 251.109 800.945 256.029 800.945 262.303C800.945 268.871 802.324 273.839 805.083 277.208C807.866 280.577 811.882 282.262 817.131 282.262C819.402 282.262 821.599 282.042 823.723 281.603C825.847 281.139 828.057 280.553 830.352 279.845V287.352C826.152 288.939 821.392 289.732 816.069 289.732C808.232 289.732 802.214 287.364 798.015 282.628C793.816 277.867 791.716 271.068 791.716 262.23C791.716 256.664 792.729 251.793 794.756 247.618C796.807 243.443 799.761 240.245 803.618 238.023C807.476 235.802 812.004 234.691 817.205 234.691C822.673 234.691 827.727 235.838 832.366 238.133L829.216 245.421C827.41 244.566 825.493 243.822 823.467 243.187C821.465 242.528 819.353 242.198 817.131 242.198ZM855.14 260.362H861.219C865.296 260.362 868.25 259.605 870.081 258.092C871.912 256.578 872.828 254.332 872.828 251.354C872.828 248.326 871.839 246.153 869.861 244.835C867.884 243.517 864.905 242.857 860.926 242.857H855.14V260.362ZM855.14 267.613V289H846.387V235.46H861.512C868.421 235.46 873.536 236.754 876.856 239.342C880.176 241.93 881.836 245.836 881.836 251.061C881.836 257.726 878.37 262.474 871.436 265.306L886.561 289H876.6L863.782 267.613H855.14ZM932.076 289L926.729 274.132H906.258L901.021 289H891.793L911.825 235.24H921.346L941.378 289H932.076ZM924.422 266.588L919.405 252.013C919.039 251.036 918.526 249.498 917.867 247.398C917.232 245.299 916.793 243.761 916.549 242.784C915.89 245.787 914.925 249.071 913.656 252.635L908.822 266.588H924.422ZM961.625 289H952.946V235.46H983.158V242.857H961.625V259.593H981.803V267.027H961.625V289ZM1015.86 289H1007.1V242.967H991.357V235.46H1031.6V242.967H1015.86V289ZM1068.33 235.46H1084.22C1091.59 235.46 1096.91 236.534 1100.19 238.683C1103.48 240.831 1105.13 244.225 1105.13 248.863C1105.13 251.988 1104.32 254.588 1102.71 256.664C1101.1 258.739 1098.78 260.045 1095.75 260.582V260.948C1099.51 261.656 1102.27 263.06 1104.03 265.16C1105.81 267.235 1106.7 270.055 1106.7 273.619C1106.7 278.429 1105.02 282.201 1101.65 284.935C1098.31 287.645 1093.64 289 1087.66 289H1068.33V235.46ZM1077.08 257.579H1085.5C1089.16 257.579 1091.84 257.005 1093.52 255.858C1095.21 254.686 1096.05 252.708 1096.05 249.925C1096.05 247.411 1095.13 245.592 1093.3 244.469C1091.49 243.346 1088.61 242.784 1084.66 242.784H1077.08V257.579ZM1077.08 264.684V281.639H1086.38C1090.04 281.639 1092.8 280.943 1094.66 279.552C1096.54 278.136 1097.48 275.914 1097.48 272.887C1097.48 270.104 1096.52 268.041 1094.62 266.698C1092.72 265.355 1089.82 264.684 1085.94 264.684H1077.08ZM1152.62 289H1122.34V235.46H1152.62V242.857H1131.09V257.433H1151.27V264.757H1131.09V281.566H1152.62V289ZM1199.02 289H1168.73V235.46H1199.02V242.857H1177.48V257.433H1197.66V264.757H1177.48V281.566H1199.02V289ZM1223.88 260.362H1229.96C1234.04 260.362 1236.99 259.605 1238.82 258.092C1240.65 256.578 1241.57 254.332 1241.57 251.354C1241.57 248.326 1240.58 246.153 1238.6 244.835C1236.62 243.517 1233.64 242.857 1229.67 242.857H1223.88V260.362ZM1223.88 267.613V289H1215.13V235.46H1230.25C1237.16 235.46 1242.27 236.754 1245.6 239.342C1248.92 241.93 1250.58 245.836 1250.58 251.061C1250.58 257.726 1247.11 262.474 1240.18 265.306L1255.3 289H1245.34L1232.52 267.613H1223.88ZM1291.58 289V235.46H1300.33V289H1291.58ZM1363.61 289H1352.88L1326.55 246.336H1326.26L1326.44 248.717C1326.78 253.258 1326.95 257.408 1326.95 261.168V289H1319.01V235.46H1329.63L1355.88 277.904H1356.1C1356.06 277.342 1355.96 275.304 1355.81 271.788C1355.67 268.248 1355.59 265.489 1355.59 263.512V235.46H1363.61V289ZM1450.83 289H1440.1L1413.77 246.336H1413.48L1413.66 248.717C1414.01 253.258 1414.18 257.408 1414.18 261.168V289H1406.23V235.46H1416.85L1443.11 277.904H1443.33C1443.28 277.342 1443.18 275.304 1443.03 271.788C1442.89 268.248 1442.81 265.489 1442.81 263.512V235.46H1450.83V289ZM1484.59 259.886L1497.27 235.46H1506.79L1488.95 268.236V289H1480.16V268.529L1462.4 235.46H1471.92L1484.59 259.886Z" fill="white" fill-opacity="0.42"/>
</svg>
