<svg xmlns="http://www.w3.org/2000/svg" class="si642b13b9f5f49f000d0668a4b231e31478704b578b3f29a64cfe96231680544710398 svgIcon_1J7 outlined_2wD darkTheme_3jZ" viewBox="0 0 32 32"><g><path class="outer_bDW" d="M0,0 L32,0 L32,32 L0,32 L0,0 Z M12.7045454,8 C10.1221593,8 8,10.1193185 8,12.7045454 L8,19.2954545 C8,21.8778407 10.1193185,24 12.7045454,24 L19.2954545,24 C21.8778407,24 24,21.8806822 24,19.2954545 L24,12.7045454 C24,10.1221593 21.8806822,8 19.2954545,8 L12.7045454,8 Z M12.7045454,9.45454545 L19.2954545,9.45454545 C21.0937498,9.45454545 22.5454545,10.9062502 22.5454545,12.7045454 L22.5454545,19.2954545 C22.5454545,21.0937498 21.0937498,22.5454545 19.2954545,22.5454545 L12.7045454,22.5454545 C10.9062502,22.5454545 9.45454545,21.0937498 9.45454545,19.2954545 L9.45454545,12.7045454 C9.45454545,10.9062502 10.9062502,9.45454545 12.7045454,9.45454545 Z M20.2954545,11.0454545 C19.9289774,11.0454545 19.6363636,11.3380684 19.6363636,11.7045454 C19.6363636,12.0710225 19.9289774,12.3636364 20.2954545,12.3636364 C20.6619316,12.3636364 20.9545454,12.0710225 20.9545454,11.7045454 C20.9545454,11.3380684 20.6619316,11.0454545 20.2954545,11.0454545 Z M16,11.6363636 C13.599432,11.6363636 11.6363636,13.599432 11.6363636,16 C11.6363636,18.400568 13.599432,20.3636364 16,20.3636364 C18.400568,20.3636364 20.3636364,18.400568 20.3636364,16 C20.3636364,13.599432 18.400568,11.6363636 16,11.6363636 Z M16,13.0909091 C17.6164771,13.0909091 18.9090909,14.3835229 18.9090909,16 C18.9090909,17.6164771 17.6164771,18.9090909 16,18.9090909 C14.3835229,18.9090909 13.0909091,17.6164771 13.0909091,16 C13.0909091,14.3835229 14.3835229,13.0909091 16,13.0909091 Z"></path><path class="insta-mask-hover_2Yt" style="fill:url(#si642b13b9f5f49f000d0668a4b231e31478704b578b3f29a64cfe96231680544710398a769880b-645a-41fa-b7a6-2ae659572207hover)" d="M0,0 L32,0 L32,32 L0,32 L0,0 Z M12.7045454,8 C10.1221593,8 8,10.1193185 8,12.7045454 L8,19.2954545 C8,21.8778407 10.1193185,24 12.7045454,24 L19.2954545,24 C21.8778407,24 24,21.8806822 24,19.2954545 L24,12.7045454 C24,10.1221593 21.8806822,8 19.2954545,8 L12.7045454,8 Z M12.7045454,9.45454545 L19.2954545,9.45454545 C21.0937498,9.45454545 22.5454545,10.9062502 22.5454545,12.7045454 L22.5454545,19.2954545 C22.5454545,21.0937498 21.0937498,22.5454545 19.2954545,22.5454545 L12.7045454,22.5454545 C10.9062502,22.5454545 9.45454545,21.0937498 9.45454545,19.2954545 L9.45454545,12.7045454 C9.45454545,10.9062502 10.9062502,9.45454545 12.7045454,9.45454545 Z M20.2954545,11.0454545 C19.9289774,11.0454545 19.6363636,11.3380684 19.6363636,11.7045454 C19.6363636,12.0710225 19.9289774,12.3636364 20.2954545,12.3636364 C20.6619316,12.3636364 20.9545454,12.0710225 20.9545454,11.7045454 C20.9545454,11.3380684 20.6619316,11.0454545 20.2954545,11.0454545 Z M16,11.6363636 C13.599432,11.6363636 11.6363636,13.599432 11.6363636,16 C11.6363636,18.400568 13.599432,20.3636364 16,20.3636364 C18.400568,20.3636364 20.3636364,18.400568 20.3636364,16 C20.3636364,13.599432 18.400568,11.6363636 16,11.6363636 Z M16,13.0909091 C17.6164771,13.0909091 18.9090909,14.3835229 18.9090909,16 C18.9090909,17.6164771 17.6164771,18.9090909 16,18.9090909 C14.3835229,18.9090909 13.0909091,17.6164771 13.0909091,16 C13.0909091,14.3835229 14.3835229,13.0909091 16,13.0909091 Z"></path></g><path d="M1,1 L1,31 L31,31 L31,1 L1,1 Z M0,0 L32,0 L32,32 L0,32 L0,0 Z" class="border_2yy"></path><g><path class="logo_2gS" d="M12.7045454,8 C10.1221593,8 8,10.1193185 8,12.7045454 L8,19.2954545 C8,21.8778407 10.1193185,24 12.7045454,24 L19.2954545,24 C21.8778407,24 24,21.8806822 24,19.2954545 L24,12.7045454 C24,10.1221593 21.8806822,8 19.2954545,8 L12.7045454,8 Z M12.7045454,9.45454545 L19.2954545,9.45454545 C21.0937498,9.45454545 22.5454545,10.9062502 22.5454545,12.7045454 L22.5454545,19.2954545 C22.5454545,21.0937498 21.0937498,22.5454545 19.2954545,22.5454545 L12.7045454,22.5454545 C10.9062502,22.5454545 9.45454545,21.0937498 9.45454545,19.2954545 L9.45454545,12.7045454 C9.45454545,10.9062502 10.9062502,9.45454545 12.7045454,9.45454545 Z M20.2954545,11.0454545 C19.9289774,11.0454545 19.6363636,11.3380684 19.6363636,11.7045454 C19.6363636,12.0710225 19.9289774,12.3636364 20.2954545,12.3636364 C20.6619316,12.3636364 20.9545454,12.0710225 20.9545454,11.7045454 C20.9545454,11.3380684 20.6619316,11.0454545 20.2954545,11.0454545 Z M16,11.6363636 C13.599432,11.6363636 11.6363636,13.599432 11.6363636,16 C11.6363636,18.400568 13.599432,20.3636364 16,20.3636364 C18.400568,20.3636364 20.3636364,18.400568 20.3636364,16 C20.3636364,13.599432 18.400568,11.6363636 16,11.6363636 Z M16,13.0909091 C17.6164771,13.0909091 18.9090909,14.3835229 18.9090909,16 C18.9090909,17.6164771 17.6164771,18.9090909 16,18.9090909 C14.3835229,18.9090909 13.0909091,17.6164771 13.0909091,16 C13.0909091,14.3835229 14.3835229,13.0909091 16,13.0909091 Z"></path><path class="insta-mask-logo-hover_19f" style="fill:url(#si642b13b9f5f49f000d0668a4b231e31478704b578b3f29a64cfe96231680544710398a769880b-645a-41fa-b7a6-2ae659572207hover)" d="M12.7045454,8 C10.1221593,8 8,10.1193185 8,12.7045454 L8,19.2954545 C8,21.8778407 10.1193185,24 12.7045454,24 L19.2954545,24 C21.8778407,24 24,21.8806822 24,19.2954545 L24,12.7045454 C24,10.1221593 21.8806822,8 19.2954545,8 L12.7045454,8 Z M12.7045454,9.45454545 L19.2954545,9.45454545 C21.0937498,9.45454545 22.5454545,10.9062502 22.5454545,12.7045454 L22.5454545,19.2954545 C22.5454545,21.0937498 21.0937498,22.5454545 19.2954545,22.5454545 L12.7045454,22.5454545 C10.9062502,22.5454545 9.45454545,21.0937498 9.45454545,19.2954545 L9.45454545,12.7045454 C9.45454545,10.9062502 10.9062502,9.45454545 12.7045454,9.45454545 Z M20.2954545,11.0454545 C19.9289774,11.0454545 19.6363636,11.3380684 19.6363636,11.7045454 C19.6363636,12.0710225 19.9289774,12.3636364 20.2954545,12.3636364 C20.6619316,12.3636364 20.9545454,12.0710225 20.9545454,11.7045454 C20.9545454,11.3380684 20.6619316,11.0454545 20.2954545,11.0454545 Z M16,11.6363636 C13.599432,11.6363636 11.6363636,13.599432 11.6363636,16 C11.6363636,18.400568 13.599432,20.3636364 16,20.3636364 C18.400568,20.3636364 20.3636364,18.400568 20.3636364,16 C20.3636364,13.599432 18.400568,11.6363636 16,11.6363636 Z M16,13.0909091 C17.6164771,13.0909091 18.9090909,14.3835229 18.9090909,16 C18.9090909,17.6164771 17.6164771,18.9090909 16,18.9090909 C14.3835229,18.9090909 13.0909091,17.6164771 13.0909091,16 C13.0909091,14.3835229 14.3835229,13.0909091 16,13.0909091 Z"></path></g></svg>