<!DOCTYPE svg PUBLIC "-//W3C//DTD SVG 1.1//EN" "http://www.w3.org/Graphics/SVG/1.1/DTD/svg11.dtd">
<!-- Uploaded to: SVG Repo, www.svgrepo.com, Transformed by: SVG Repo Mixer Tools -->
<svg width="64px" height="64px" viewBox="0 0 24 24" fill="none" xmlns="http://www.w3.org/2000/svg">
<g id="SVGRepo_bgCarrier" stroke-width="0"/>
<g id="SVGRepo_tracerCarrier" stroke-linecap="round" stroke-linejoin="round"/>
<g id="SVGRepo_iconCarrier"> <path d="M3 11C3 7.22876 3 5.34315 4.17157 4.17157C5.34315 3 7.22876 3 11 3H13C16.7712 3 18.6569 3 19.8284 4.17157C21 5.34315 21 7.22876 21 11V13C21 16.7712 21 18.6569 19.8284 19.8284C18.6569 21 16.7712 21 13 21H11C7.22876 21 5.34315 21 4.17157 19.8284C3 18.6569 3 16.7712 3 13V11Z" stroke="#ffc123" stroke-width="2"/> <circle cx="16.5" cy="7.5" r="1.5" fill="#ffc123"/> <circle cx="12" cy="12" r="3" stroke="#ffc123" stroke-width="2"/> </g>
</svg>