<svg xmlns="http://www.w3.org/2000/svg" class="si642b13b9f5f49f000d0668a4b231e31478704b578b3f29a64cfe96231680544710398 svgIcon_1J7 outlined_2wD darkTheme_3jZ" viewBox="0 0 32 32"><path class="outer_bDW" d="M0,0 L32,0 L32,32 L0,32 L0,0 Z M18.2559309,10.185454 C17.4986687,10.0793317 16.3603404,9.9285692 14.9361112,10.0381409 C14.3519316,10.0766939 13.7738394,10.1550174 13.1987909,10.2662124 C12.6048717,10.3812627 12.0225184,10.5383154 11.4521368,10.7396027 C10.6611914,11.0192135 9.90839321,11.3783652 9.20185862,11.8316674 C9.16452308,11.8556108 9.11582454,11.8736699 9.07199585,11.8736699 C8.0663711,11.875699 7.06094926,11.8752931 6.05532451,11.8748873 C6.03888875,11.8748873 6.02225009,11.8716408 6.00540851,11.8696116 C6.00540851,11.8830037 6.00540851,11.8965988 6.00540851,11.9097879 C6.08941348,12.0252441 6.18031741,12.136642 6.25620597,12.2569679 C6.55509323,12.7301554 6.81035472,13.2242426 6.95847943,13.7674342 C6.97065406,13.8112628 6.961726,13.8761942 6.93615927,13.912921 C6.57294936,14.430343 6.30835398,14.993014 6.15657688,15.6058039 C6.10422595,15.8166279 5.89441643,16.6852881 6.0666875,17.586211 C6.21724714,18.5514565 6.61819841,19.4004343 7.26284528,20.131724 C7.92250751,20.8796523 8.73901962,21.3865229 9.69980114,21.6505096 C10.3777253,21.8373902 11.0690416,21.8771606 11.767054,21.7665743 C13.0218529,21.5683308 14.0518269,20.975629 14.870571,20.0087601 C14.8768613,20.0012525 14.8835573,19.993339 14.8914708,19.9868458 C14.8961378,19.9823818 14.9030367,19.9809614 14.9269802,19.968381 C15.2735514,20.4860058 15.6209343,21.0056598 15.9802889,21.5425612 C16.3410639,21.0040365 16.6933167,20.4793098 17.0512508,19.9458579 C17.146416,20.0531976 17.2304208,20.1524208 17.3197016,20.247383 C17.9966111,20.9707591 18.8179932,21.4484106 19.7761369,21.696976 C20.1693775,21.7988371 20.569923,21.8530143 20.9724975,21.8505793 C21.9306412,21.8453037 22.8275058,21.6001877 23.639351,21.0854036 C24.7752444,20.365477 25.5227669,19.3486921 25.8433656,18.0445859 C26.2090105,16.5576573 25.9298055,15.1782713 25.0548551,13.9218491 C25.0118381,13.8595555 25.0156934,13.806393 25.0339554,13.742882 C25.2021682,13.1516006 25.4870546,12.6167283 25.8204367,12.1053937 C25.8664974,12.0349838 25.9129639,11.9653854 25.9588217,11.8947726 C25.9620682,11.8903085 25.9592275,11.8821921 25.9592275,11.8629156 C25.8802953,11.8584516 25.801566,11.8501322 25.7224308,11.8501322 C24.7403438,11.8493206 23.7578508,11.850741 22.7749521,11.8466828 C22.7063683,11.8466828 22.6286535,11.8237539 22.5704182,11.7876358 C21.7336151,11.2643294 20.8438523,10.8609432 19.9009268,10.5705782 C19.3607789,10.4045974 18.8141379,10.2643862 18.2559309,10.185454 Z M16.9952475,16.8269196 C17.0151327,14.6537475 18.7216106,12.896542 20.9016818,12.851293 C23.1099574,12.8064497 24.9763287,14.5360594 24.9779521,16.8368623 C24.9795753,19.0694872 23.1959915,20.8228373 20.98731,20.8307508 C18.7869478,20.8392731 16.9952475,19.0351953 16.9952475,16.8269196 Z M11.0071539,12.8360747 C13.2259809,12.8360747 15.0063182,14.6168178 15.0028687,16.8399059 C14.9988105,19.0037442 13.2399817,20.7905746 11.0517942,20.8092423 C8.81389362,20.8285189 7.05871725,19.0232236 7.02381662,16.8936772 C6.98627817,14.6101217 8.85914268,12.8174069 11.0071539,12.8360747 Z M11.2051946,11.7943318 C12.8280733,11.1135669 14.5274493,10.8560734 16.2745093,10.8903653 C17.8117596,10.9199902 19.3051814,11.1874263 20.7214972,11.8170578 C19.5279772,11.9069472 18.4762917,12.3320448 17.5930221,13.1420638 C16.7111728,13.9512711 16.1984178,14.9613599 16.0015945,16.1461547 C15.8102499,14.9471562 15.2836969,13.9275306 14.3850061,13.1102068 C13.484489,12.2912598 12.4185998,11.8683942 11.2051946,11.7943318 Z M20.9791936,14.3075821 C19.6572312,14.2844503 18.5020614,15.376312 18.500844,16.7776124 C18.5004381,18.1630857 19.6474915,19.3052693 21.0810547,19.2502805 C22.3646669,19.2013791 23.4526733,18.141983 23.4526733,16.7715251 C23.4526733,15.4063428 22.3457962,14.3053501 20.9791936,14.3075821 Z M22.5911151,16.7776124 C22.5915209,17.6667665 21.8620574,18.3970416 20.9741208,18.3935921 C20.0876046,18.3911572 19.3555032,17.6554035 19.3587498,16.7711192 C19.3624022,15.8829797 20.0908511,15.1628501 20.9856867,15.1628501 C21.8703767,15.1628501 22.5905063,15.886835 22.5911151,16.7776124 Z M20.980411,15.9576508 C20.5181808,15.9580566 20.1600436,16.3188316 20.159232,16.7847142 C20.1582174,17.2337553 20.5269059,17.5961536 20.9854838,17.5961536 C21.4308724,17.5959507 21.7959085,17.2303058 21.8003726,16.7790327 C21.8046337,16.3287742 21.4333074,15.957245 20.980411,15.9576508 Z M10.9543972,14.3075821 C9.63933379,14.2840445 8.47625044,15.3637316 8.47340969,16.7749745 C8.47077186,18.1679555 9.63202902,19.3152119 11.0712736,19.2494689 C12.3323628,19.1920452 13.4213838,18.1557809 13.4252391,16.7741629 C13.4286886,15.4091835 12.3201882,14.3061617 10.9543972,14.3075821 Z M12.5644925,16.7721338 C12.5667245,17.6606791 11.8354348,18.3964328 10.9519622,18.3944037 C10.0630111,18.3919688 9.33253303,17.663317 9.33030101,16.7772066 C9.3282719,15.9012416 10.0595616,15.1646763 10.9322799,15.163053 C11.8370581,15.1614297 12.5618546,15.8758778 12.5644925,16.7721338 Z M10.950136,15.950346 C10.4836446,15.9509547 10.1230726,16.3099035 10.1230726,16.7723367 C10.1226668,17.2432921 10.4840505,17.6052846 10.952571,17.60427 C11.4101343,17.6032555 11.7830839,17.2301029 11.7812577,16.7755833 C11.7794315,16.3172083 11.4099314,15.9499402 10.950136,15.950346 Z"></path><path d="M1,1 L1,31 L31,31 L31,1 L1,1 Z M0,0 L32,0 L32,32 L0,32 L0,0 Z" class="border_2yy"></path><path class="logo_2gS" d="M18.2559309,10.185454 C18.8141379,10.2643862 19.3607789,10.4045974 19.9009268,10.5705782 C20.8438523,10.8609432 21.7336151,11.2643294 22.5704182,11.7876358 C22.6286535,11.8237539 22.7063683,11.8466828 22.7749521,11.8466828 C23.7578508,11.850741 24.7403438,11.8493206 25.7224308,11.8501322 C25.801566,11.8501322 25.8802953,11.8584516 25.9592275,11.8629156 C25.9592275,11.8821921 25.9620682,11.8903085 25.9588217,11.8947726 C25.9129639,11.9653854 25.8664974,12.0349838 25.8204367,12.1053937 C25.4870546,12.6167283 25.2021682,13.1516006 25.0339554,13.742882 C25.0156934,13.806393 25.0118381,13.8595555 25.0548551,13.9218491 C25.9298055,15.1782713 26.2090105,16.5576573 25.8433656,18.0445859 C25.5227669,19.3486921 24.7752444,20.365477 23.639351,21.0854036 C22.8275058,21.6001877 21.9306412,21.8453037 20.9724975,21.8505793 C20.569923,21.8530143 20.1693775,21.7988371 19.7761369,21.696976 C18.8179932,21.4484106 17.9966111,20.9707591 17.3197016,20.247383 C17.2304208,20.1524208 17.146416,20.0531976 17.0512508,19.9458579 C16.6933167,20.4793098 16.3410639,21.0040365 15.9802889,21.5425612 C15.6209343,21.0056598 15.2735514,20.4860058 14.9269802,19.968381 C14.9030367,19.9809614 14.8961378,19.9823818 14.8914708,19.9868458 C14.8835573,19.993339 14.8768613,20.0012525 14.870571,20.0087601 C14.0518269,20.975629 13.0218529,21.5683308 11.767054,21.7665743 C11.0690416,21.8771606 10.3777253,21.8373902 9.69980114,21.6505096 C8.73901962,21.3865229 7.92250751,20.8796523 7.26284528,20.131724 C6.61819841,19.4004343 6.21724714,18.5514565 6.0666875,17.586211 C5.89441643,16.6852881 6.10422595,15.8166279 6.15657688,15.6058039 C6.30835398,14.993014 6.57294936,14.430343 6.93615927,13.912921 C6.961726,13.8761942 6.97065406,13.8112628 6.95847943,13.7674342 C6.81035472,13.2242426 6.55509323,12.7301554 6.25620597,12.2569679 C6.18031741,12.136642 6.08941348,12.0252441 6.00540851,11.9097879 C6.00540851,11.8965988 6.00540851,11.8830037 6.00540851,11.8696116 C6.02225009,11.8716408 6.03888875,11.8748873 6.05532451,11.8748873 C7.06094926,11.8752931 8.0663711,11.875699 9.07199585,11.8736699 C9.11582454,11.8736699 9.16452308,11.8556108 9.20185862,11.8316674 C9.90839321,11.3783652 10.6611914,11.0192135 11.4521368,10.7396027 C12.0225184,10.5383154 12.6048717,10.3812627 13.1987909,10.2662124 C13.7738394,10.1550174 14.3519316,10.0766939 14.9361112,10.0381409 C16.3603404,9.9285692 17.4986687,10.0793317 18.2559309,10.185454 Z M16.9952475,16.8269196 C16.9952475,19.0351953 18.7869478,20.8392731 20.98731,20.8307508 C23.1959915,20.8228373 24.9795753,19.0694872 24.9779521,16.8368623 C24.9763287,14.5360594 23.1099574,12.8064497 20.9016818,12.851293 C18.7216106,12.896542 17.0151327,14.6537475 16.9952475,16.8269196 Z M11.0071539,12.8360747 C8.85914268,12.8174069 6.98627817,14.6101217 7.02381662,16.8936772 C7.05871725,19.0232236 8.81389362,20.8285189 11.0517942,20.8092423 C13.2399817,20.7905746 14.9988105,19.0037442 15.0028687,16.8399059 C15.0063182,14.6168178 13.2259809,12.8360747 11.0071539,12.8360747 Z M11.2051946,11.7943318 C12.4185998,11.8683942 13.484489,12.2912598 14.3850061,13.1102068 C15.2836969,13.9275306 15.8102499,14.9471562 16.0015945,16.1461547 C16.1984178,14.9613599 16.7111728,13.9512711 17.5930221,13.1420638 C18.4762917,12.3320448 19.5279772,11.9069472 20.7214972,11.8170578 C19.3051814,11.1874263 17.8117596,10.9199902 16.2745093,10.8903653 C14.5274493,10.8560734 12.8280733,11.1135669 11.2051946,11.7943318 Z M20.9791936,14.3075821 C22.3457962,14.3053501 23.4526733,15.4063428 23.4526733,16.7715251 C23.4526733,18.141983 22.3646669,19.2013791 21.0810547,19.2502805 C19.6474915,19.3052693 18.5004381,18.1630857 18.500844,16.7776124 C18.5020614,15.376312 19.6572312,14.2844503 20.9791936,14.3075821 Z M22.5911151,16.7776124 C22.5905063,15.886835 21.8703767,15.1628501 20.9856867,15.1628501 C20.0908511,15.1628501 19.3624022,15.8829797 19.3587498,16.7711192 C19.3555032,17.6554035 20.0876046,18.3911572 20.9741208,18.3935921 C21.8620574,18.3970416 22.5915209,17.6667665 22.5911151,16.7776124 Z M20.980411,15.9576508 C21.4333074,15.957245 21.8046337,16.3287742 21.8003726,16.7790327 C21.7959085,17.2303058 21.4308724,17.5959507 20.9854838,17.5961536 C20.5269059,17.5961536 20.1582174,17.2337553 20.159232,16.7847142 C20.1600436,16.3188316 20.5181808,15.9580566 20.980411,15.9576508 Z M10.9543972,14.3075821 C12.3201882,14.3061617 13.4286886,15.4091835 13.4252391,16.7741629 C13.4213838,18.1557809 12.3323628,19.1920452 11.0712736,19.2494689 C9.63202902,19.3152119 8.47077186,18.1679555 8.47340969,16.7749745 C8.47625044,15.3637316 9.63933379,14.2840445 10.9543972,14.3075821 Z M12.5644925,16.7721338 C12.5618546,15.8758778 11.8370581,15.1614297 10.9322799,15.163053 C10.0595616,15.1646763 9.3282719,15.9012416 9.33030101,16.7772066 C9.33253303,17.663317 10.0630111,18.3919688 10.9519622,18.3944037 C11.8354348,18.3964328 12.5667245,17.6606791 12.5644925,16.7721338 Z M10.950136,15.950346 C11.4099314,15.9499402 11.7794315,16.3172083 11.7812577,16.7755833 C11.7830839,17.2301029 11.4101343,17.6032555 10.952571,17.60427 C10.4840505,17.6052846 10.1226668,17.2432921 10.1230726,16.7723367 C10.1230726,16.3099035 10.4836446,15.9509547 10.950136,15.950346 Z"></path></svg>