<svg xmlns="http://www.w3.org/2000/svg" viewBox="5 7 20 20">
<path d="M0,0 L32,0 L32,32 L0,32 L0,0 Z M23.5445333,10.2885333 C23.0796444,10.5863111 22.0122666,11.0190222 21.4858666,11.0190222 L21.4858666,11.0199111 C20.8848,10.392 20.0385777,10 19.1000888,10 C17.2773333,10 15.7992889,11.4780444 15.7992889,13.3000888 C15.7992889,13.5532445 15.8286222,13.8001778 15.8828444,14.0369778 L15.8823111,14.0369778 C13.4097777,13.9720888 10.7056,12.7328 9.07768889,10.6117333 C8.0768,12.3441778 8.94293333,14.2709334 10.0787556,14.9729778 C9.68995555,15.0023111 8.97422222,14.9281778 8.63733333,14.5994666 C8.61475555,15.7493334 9.16764444,17.2728889 11.1836444,17.8256 C10.7953778,18.0344889 10.1080889,17.9745778 9.80924444,17.9301333 C9.91413329,18.9008 11.2734222,20.1697778 12.7598222,20.1697778 C12.2300445,20.7825777 10.2368,21.8940444 8,21.5404445 C9.51911111,22.4647111 11.2896,22.9999999 13.1635555,22.9999999 C18.4888889,22.9999999 22.6245334,18.6840889 22.4019555,13.3598222 C22.4010666,13.3539556 22.4010666,13.3480889 22.4005334,13.3416889 C22.4010666,13.328 22.4019555,13.3143111 22.4019555,13.3000888 C22.4019555,13.2835556 22.4005334,13.2679111 22.4,13.2519111 C22.8847999,12.9203555 23.5352888,12.3338667 24,11.5619556 C23.7304889,11.7104 22.9219555,12.0076445 22.1696,12.0814222 C22.6524444,11.8208 23.3678222,10.9672889 23.5445333,10.2885333 Z"></path>
<path d="M1,1 L1,31 L31,31 L31,1 L1,1 Z M0,0 L32,0 L32,32 L0,32 L0,0 Z"></path>
<path fill="#ffc123" d="M23.5445333,10.2885333 C23.0796444,10.5863111 22.0122666,11.0190222 21.4858666,11.0190222 L21.4858666,11.0199111 C20.8848,10.392 20.0385777,10 19.1000888,10 C17.2773333,10 15.7992889,11.4780444 15.7992889,13.3000888 C15.7992889,13.5532445 15.8286222,13.8001778 15.8828444,14.0369778 L15.8823111,14.0369778 C13.4097777,13.9720888 10.7056,12.7328 9.07768889,10.6117333 C8.0768,12.3441778 8.94293333,14.2709334 10.0787556,14.9729778 C9.68995555,15.0023111 8.97422222,14.9281778 8.63733333,14.5994666 C8.61475555,15.7493334 9.16764444,17.2728889 11.1836444,17.8256 C10.7953778,18.0344889 10.1080889,17.9745778 9.80924444,17.9301333 C9.91413329,18.9008 11.2734222,20.1697778 12.7598222,20.1697778 C12.2300445,20.7825777 10.2368,21.8940444 8,21.5404445 C9.51911111,22.4647111 11.2896,22.9999999 13.1635555,22.9999999 C18.4888889,22.9999999 22.6245334,18.6840889 22.4019555,13.3598222 C22.4010666,13.3539556 22.4010666,13.3480889 22.4005334,13.3416889 C22.4010666,13.328 22.4019555,13.3143111 22.4019555,13.3000888 C22.4019555,13.2835556 22.4005334,13.2679111 22.4,13.2519111 C22.8847999,12.9203555 23.5352888,12.3338667 24,11.5619556 C23.7304889,11.7104 22.9219555,12.0076445 22.1696,12.0814222 C22.6524444,11.8208 23.3678222,10.9672889 23.5445333,10.2885333"></path>
</svg>